<svg id="Layer_1" data-name="Layer 1" xmlns="http://www.w3.org/2000/svg" viewBox="0 0 459.57 435.06"><defs><style>.cls-1{fill:#fff;}.cls-2{fill:#68cce9;}.cls-3{fill:#305d6a;}</style></defs><title>evolvingkid_logo</title><rect class="cls-1" width="459.57" height="435.06"/><path class="cls-2" d="M418.7,506.48,309,570.47a29.63,29.63,0,0,1-29.65.13l-110.27-63A29.64,29.64,0,0,1,154.13,482l-.57-127a29.63,29.63,0,0,1,14.71-25.74l109.71-64a29.66,29.66,0,0,1,29.65-.14l110.27,63a29.65,29.65,0,0,1,14.94,25.62l.57,127A29.65,29.65,0,0,1,418.7,506.48Z" transform="translate(-63.7 -192.38)"/><path class="cls-3" d="M286.48,377.41l-52.42.32a4.25,4.25,0,0,1-4.23-4.19l0-5.61a4.27,4.27,0,0,1,4.19-4.24l63-.38a4.27,4.27,0,0,1,4.24,4.18l.61,100.78a4.27,4.27,0,0,1-4.18,4.24l-61.78.37a4.27,4.27,0,0,1-4.24-4.19l0-5.61a4,4,0,0,1,1.23-3,4.05,4.05,0,0,1,3-1.27l51.17-.31-.2-32.91L239,425.9a4,4,0,0,1-3-1.22,4.07,4.07,0,0,1-1.27-3l0-5.62a4,4,0,0,1,1.23-3,4,4,0,0,1,2.95-1.26l47.74-.29Z" transform="translate(-63.7 -192.38)"/><path class="cls-3" d="M363.66,466.85a4.3,4.3,0,0,1,1.56,2.8,3.48,3.48,0,0,1-3.43,3.44h-9.68a7.65,7.65,0,0,1-5.61-2.34l-44.15-42.12v40.24a4.27,4.27,0,0,1-4.21,4.22h-6.4a4.27,4.27,0,0,1-4.21-4.22V368.1a4.25,4.25,0,0,1,4.21-4.21h6.4a4.25,4.25,0,0,1,4.21,4.21v36.35c13.43-12.38,16.21-16.1,41.65-38.22a7.66,7.66,0,0,1,5.62-2.34h9.05a3.47,3.47,0,0,1,3.43,3.43,4.31,4.31,0,0,1-1.56,2.81l-50.08,46Z" transform="translate(-63.7 -192.38)"/></svg>