<svg width="1440" height="1024" viewBox="0 0 1440 1024" fill="none" xmlns="http://www.w3.org/2000/svg">
<g clip-path="url(#clip0)">
<rect width="1440" height="1024" fill="white"/>
<rect width="1440" height="1024" fill="white"/>
<path d="M1812 512C1812 794.77 1587.69 1024 1311 1024C1034.31 1024 810 794.77 810 512C810 229.23 1034.31 0 1311 0C1587.69 0 1812 229.23 1812 512Z" fill="#26AEFB" fill-opacity="0.58"/>
<path d="M1849 512C1849 794.77 1592.68 1024 1276.5 1024C960.317 1024 704 794.77 704 512C704 229.23 960.317 0 1276.5 0C1592.68 0 1849 229.23 1849 512Z" fill="#26AEFB" fill-opacity="0.58"/>
<path d="M1900 511.776C1900 794.546 1675.69 1023.78 1399 1023.78C1122.31 1023.78 898 794.546 898 511.776C898 229.006 1122.31 -0.223816 1399 -0.223816C1675.69 -0.223816 1900 229.006 1900 511.776Z" fill="#26AEFB"/>
<g clip-path="url(#clip1)">
<path d="M1187.78 359.683C1202.46 381.133 1199.21 408.92 1199.21 408.92C1199.21 408.92 1172.15 401.93 1157.47 380.48C1142.78 359.03 1146.03 331.243 1146.03 331.243C1146.03 331.243 1173.09 338.233 1187.78 359.683Z" fill="#2F2E41"/>
<path d="M1177.21 363.779C1178.93 389.727 1198.66 409.544 1198.66 409.544C1198.66 409.544 1215.6 387.293 1213.88 361.346C1212.16 335.398 1192.43 315.58 1192.43 315.58C1192.43 315.58 1175.49 337.832 1177.21 363.779Z" fill="#6C63FF"/>
<path d="M1008.59 288.54L1207.99 388.892C1209.65 389.726 1211.02 391.032 1211.94 392.645C1212.86 394.258 1213.29 396.107 1213.16 397.961L1201.58 569.737C1201.52 570.508 1201.28 571.253 1200.87 571.907C1200.46 572.562 1199.9 573.104 1199.23 573.486C1198.56 573.868 1197.8 574.078 1197.03 574.097C1196.26 574.117 1195.5 573.944 1194.81 573.596L990.864 469.407L1001.33 292.728C1001.38 291.898 1001.64 291.093 1002.07 290.386C1002.51 289.679 1003.12 289.091 1003.84 288.676C1004.56 288.261 1005.37 288.031 1006.2 288.007C1007.03 287.984 1007.85 288.167 1008.59 288.54V288.54Z" fill="#D0CDE1"/>
<path d="M1010.89 292.041L1205.39 389.928C1207 390.742 1208.34 392.015 1209.24 393.589C1210.14 395.162 1210.55 396.966 1210.43 398.773L1199.13 566.331C1199.08 567.082 1198.84 567.81 1198.44 568.448C1198.04 569.086 1197.49 569.615 1196.84 569.988C1196.19 570.36 1195.45 570.565 1194.7 570.584C1193.94 570.603 1193.2 570.434 1192.53 570.095L993.594 468.465L1003.81 296.125C1003.85 295.316 1004.1 294.531 1004.53 293.841C1004.95 293.151 1005.55 292.578 1006.25 292.173C1006.95 291.768 1007.74 291.544 1008.55 291.521C1009.36 291.498 1010.16 291.677 1010.89 292.041V292.041Z" fill="#3F3D56"/>
<path d="M1019.41 305.042L1195.72 393.774C1197.18 394.512 1198.4 395.666 1199.21 397.092C1200.03 398.519 1200.4 400.154 1200.29 401.792L1190.05 553.678C1190 554.36 1189.79 555.019 1189.43 555.597C1189.06 556.176 1188.56 556.655 1187.97 556.993C1187.38 557.331 1186.71 557.517 1186.03 557.534C1185.35 557.55 1184.67 557.398 1184.06 557.09L1003.74 464.966L1012.99 308.745C1013.04 308.011 1013.26 307.3 1013.65 306.674C1014.03 306.049 1014.57 305.529 1015.2 305.162C1015.84 304.795 1016.56 304.592 1017.29 304.571C1018.03 304.55 1018.75 304.712 1019.41 305.042V305.042Z" fill="white"/>
<path d="M837.488 553.932L1037.14 654.582C1039 655.517 1041.05 656.003 1043.13 656C1045.21 655.997 1047.26 655.506 1049.11 654.566L1196.81 579.514C1198.54 577.78 1198.3 575.211 1197.75 573.282C1197.48 572.348 1197.11 571.445 1196.65 570.588L1176.53 559.991L1007.31 475.475L997.198 470.102C994.521 468.683 991.541 467.935 988.512 467.923C985.484 467.911 982.497 468.635 979.81 470.032L837.425 544.069C836.52 544.538 835.761 545.248 835.233 546.122C834.706 546.996 834.43 547.998 834.437 549.019C834.443 550.04 834.732 551.039 835.27 551.906C835.809 552.773 836.576 553.474 837.488 553.932V553.932Z" fill="#D0CDE1"/>
<path opacity="0.1" d="M837.488 553.931L1037.14 654.582C1039 655.517 1041.05 656.003 1043.13 656C1045.21 655.997 1047.26 655.506 1049.11 654.566L1196.81 579.514C1198.54 577.78 1198.3 575.211 1197.75 573.282L1050.49 649.9C1048.69 650.835 1046.7 651.332 1044.68 651.349C1042.65 651.366 1040.65 650.904 1038.84 650L834.508 548.098C834.316 549.262 834.501 550.456 835.038 551.506C835.574 552.556 836.433 553.406 837.488 553.931V553.931Z" fill="black"/>
<path opacity="0.1" d="M1026.99 584.088L962.331 551.381C961.03 550.723 959.589 550.388 958.13 550.404C956.672 550.421 955.239 550.789 953.953 551.477L916.445 571.536C916.011 571.768 915.65 572.114 915.4 572.537C915.149 572.961 915.02 573.445 915.026 573.937C915.032 574.428 915.172 574.909 915.432 575.326C915.692 575.744 916.062 576.082 916.501 576.303L982.426 609.581C983.52 610.134 984.734 610.408 985.96 610.38C987.185 610.352 988.385 610.022 989.453 609.419L1027.11 588.182C1027.48 587.975 1027.78 587.671 1027.99 587.304C1028.2 586.937 1028.3 586.52 1028.29 586.098C1028.27 585.677 1028.15 585.267 1027.92 584.912C1027.69 584.558 1027.37 584.273 1026.99 584.088V584.088Z" fill="black"/>
<path opacity="0.1" d="M1179.27 578.618L1109.69 615.619C1108.89 616.045 1108 616.272 1107.09 616.281C1106.18 616.29 1105.29 616.081 1104.48 615.672L907.895 516.156C907.341 515.875 906.876 515.446 906.552 514.916C906.228 514.386 906.058 513.776 906.06 513.155C906.063 512.534 906.239 511.925 906.567 511.398C906.896 510.871 907.364 510.446 907.921 510.17L975.864 476.507C976.888 476 978.016 475.738 979.159 475.742C980.301 475.746 981.427 476.016 982.448 476.53L1179.24 575.783C1179.5 575.915 1179.72 576.116 1179.87 576.364C1180.03 576.612 1180.11 576.899 1180.11 577.191C1180.12 577.484 1180.04 577.772 1179.89 578.024C1179.74 578.275 1179.53 578.481 1179.27 578.618Z" fill="black"/>
<path d="M1068.27 394.091L1067.92 394.79L1131.89 426.807L1132.24 426.108L1068.27 394.091Z" fill="#6C63FF"/>
<path d="M1068.26 403.481L1067.91 404.176L1131.89 436.94L1132.25 436.245L1068.26 403.481Z" fill="#6C63FF"/>
<path d="M1079.98 421.419L1079.62 422.115L1116.28 440.866L1116.64 440.171L1079.98 421.419Z" fill="#6C63FF"/>
<path d="M879.69 460.515C879.69 460.515 864.091 453.711 856.764 460.899C849.437 468.086 876.381 465.72 879.69 460.515Z" fill="#3F3D56"/>
<path d="M852.754 428.246C857.997 419.38 868.368 418.966 868.368 418.966C868.368 418.966 878.474 417.673 884.957 431.177C891 443.764 899.34 455.917 886.3 458.863L883.944 451.525L882.486 459.41C880.629 459.543 878.767 459.575 876.906 459.505C862.942 459.054 849.643 459.637 850.071 454.621C850.64 447.953 847.71 436.778 852.754 428.246Z" fill="#2F2E41"/>
<path d="M845.419 588.985C845.419 588.985 852.037 601.288 856.291 601.288C860.546 601.288 860.073 609.332 859.128 611.225C858.182 613.117 855.819 617.376 859.6 623.527C860.921 625.676 860.685 628.114 859.818 630.376C857.389 636.714 847.942 634.794 848.243 628.012C848.247 627.937 848.251 627.862 848.255 627.786C848.728 620.215 844.947 608.386 841.165 605.546C837.383 602.707 834.074 595.136 834.074 595.136L845.419 588.985Z" fill="#FFB8B8"/>
<path d="M890.799 586.146C890.799 586.146 884.181 598.449 879.926 598.449C875.672 598.449 876.145 606.493 877.09 608.386C878.036 610.278 880.399 614.537 876.618 620.688C875.297 622.837 875.533 625.274 876.4 627.537C878.828 633.875 888.276 631.955 887.974 625.173C887.971 625.098 887.967 625.023 887.962 624.947C887.49 617.376 891.271 605.546 895.053 602.707C898.834 599.868 902.143 592.297 902.143 592.297L890.799 586.146Z" fill="#FFB8B8"/>
<path d="M885.599 525.578L888.435 531.73C888.435 531.73 930.033 545.452 926.251 561.54C922.469 577.629 904.034 602.707 901.198 601.761C898.362 600.815 883.235 597.975 882.763 589.931C882.29 581.887 893.635 567.692 893.635 567.692L878.036 553.496L855.336 553.023L835.965 567.692C835.965 567.692 856.291 585.673 847.31 592.77C838.329 599.868 825.093 604.6 823.202 601.761C821.312 598.922 800.04 556.808 803.349 553.023C806.658 549.237 840.22 535.042 840.22 535.042L849.201 522.266L884.181 520.373L885.599 525.578Z" fill="#2F2E41"/>
<path d="M877.09 447.503C877.09 447.503 874.727 463.118 879.454 465.011C884.181 466.903 870 474.948 870 474.948H861.964L856.764 464.064C856.764 464.064 861.491 455.547 858.655 447.503C855.819 439.459 877.09 447.503 877.09 447.503Z" fill="#FFB8B8"/>
<path opacity="0.1" d="M877.09 447.503C877.09 447.503 874.727 463.118 879.454 465.011C884.181 466.903 870 474.948 870 474.948H861.964L856.764 464.064C856.764 464.064 861.491 455.547 858.655 447.503C855.819 439.459 877.09 447.503 877.09 447.503Z" fill="black"/>
<path d="M880.399 460.752C880.399 460.752 875.199 466.43 874.254 467.377C873.309 468.323 869.054 473.528 860.073 465.957C851.092 458.386 850.146 467.377 850.146 467.377V524.159C850.146 524.159 857.709 520.846 863.855 524.159C870 527.471 882.763 523.212 882.763 523.212L885.126 464.537L880.399 460.752Z" fill="#D0CDE1"/>
<path d="M876.927 460.752C876.927 460.752 881.344 458.859 885.126 460.752C888.908 462.645 902.143 472.108 901.198 476.367C900.252 480.626 887.962 510.436 896.471 524.632C904.98 538.827 906.398 542.613 906.398 542.613L885.599 531.73C885.599 531.73 869.527 521.793 870.945 515.641C872.363 509.49 876.927 460.752 876.927 460.752Z" fill="#3F3D56"/>
<path d="M858.177 460.752C858.177 460.752 848.255 461.698 847.783 462.645C847.31 463.591 832.893 467.613 833.838 471.872C834.784 476.13 847.783 514.222 842.11 521.32C836.438 528.417 826.984 538.354 830.293 539.301C833.602 540.247 839.274 537.881 844.947 539.301C850.619 540.72 863.855 528.891 862.436 516.115C861.018 503.339 862.425 464.064 858.177 460.752Z" fill="#3F3D56"/>
<path d="M881.817 551.13V555.862C881.817 555.862 884.181 566.745 876.618 566.272C869.054 565.799 873.781 553.023 873.781 553.023L874.254 548.764L881.817 551.13Z" fill="#FFB8B8"/>
<path d="M860.546 551.603C860.546 551.603 865.745 562.487 860.546 563.433C855.346 564.379 851.564 557.282 851.564 555.389C851.564 553.496 860.546 551.603 860.546 551.603Z" fill="#FFB8B8"/>
<path d="M853.691 443.008C854.214 443.008 854.637 442.16 854.637 441.115C854.637 440.069 854.214 439.222 853.691 439.222C853.169 439.222 852.746 440.069 852.746 441.115C852.746 442.16 853.169 443.008 853.691 443.008Z" fill="#FFB8B8"/>
<path d="M881.581 443.008C882.103 443.008 882.526 442.16 882.526 441.115C882.526 440.069 882.103 439.222 881.581 439.222C881.059 439.222 880.635 440.069 880.635 441.115C880.635 442.16 881.059 443.008 881.581 443.008Z" fill="#FFB8B8"/>
<path d="M845.419 466.903C845.419 466.903 833.602 466.903 834.074 471.635C834.547 476.367 850.146 557.755 850.146 557.755C850.146 557.755 856.764 551.603 862.437 553.023L845.419 466.903Z" fill="#3F3D56"/>
<path d="M891.271 468.323C891.271 468.323 903.089 470.689 903.089 477.787C903.089 484.884 886.071 553.023 883.708 553.023C881.344 553.023 872.363 551.603 872.363 549.237C872.363 546.871 891.271 468.323 891.271 468.323Z" fill="#3F3D56"/>
<path opacity="0.2" d="M888.671 482.282L878.036 523.918C878.036 523.918 882.999 487.487 888.671 482.282Z" fill="black"/>
<path opacity="0.2" d="M847.302 476.432L858.059 530.868C858.059 530.868 854.621 479.572 847.302 476.432Z" fill="black"/>
<path d="M867.636 455.074C875.207 455.074 881.345 448.93 881.345 441.351C881.345 433.773 875.207 427.629 867.636 427.629C860.065 427.629 853.928 433.773 853.928 441.351C853.928 448.93 860.065 455.074 867.636 455.074Z" fill="#FFB8B8"/>
<path d="M855.072 427.391L865.319 422.019L879.468 424.217L882.395 437.16L875.108 436.88L873.072 432.124V436.801L869.71 436.672L867.758 429.101L866.538 437.16L854.584 436.916L855.072 427.391Z" fill="#2F2E41"/>
<path d="M1008.72 347.725L1003.07 361.177L1050.76 386.237L1066.83 339.169" fill="#F2F2F2"/>
<path d="M1049.66 377.983L1070.73 328.359L1022.31 304.506L1001.97 352.924L1049.66 377.983Z" fill="#6C63FF"/>
<path d="M1021.16 323.483L1020.81 324.178L1057.47 342.929L1057.82 342.234L1021.16 323.483Z" fill="white"/>
<path d="M1018.42 330.085L1018.06 330.781L1054.72 349.532L1055.08 348.836L1018.42 330.085Z" fill="white"/>
</g>
</g>
<defs>
<clipPath id="clip0">
<rect width="1440" height="1024" fill="white"/>
</clipPath>
<clipPath id="clip1">
<rect width="411" height="368" fill="white" transform="translate(803 288)"/>
</clipPath>
</defs>
</svg>
